<svg width="510" height="429" viewBox="0 0 510 429" fill="none" xmlns="http://www.w3.org/2000/svg">
<path d="M254.031 489.763C389.591 489.763 499.484 426.314 499.484 348.044C499.484 269.775 389.591 206.326 254.031 206.326C118.471 206.326 8.57812 269.775 8.57812 348.044C8.57812 426.314 118.471 489.763 254.031 489.763Z" fill="#FAFAFA"/>
<path d="M388.487 439.232C415.646 439.232 437.662 426.523 437.662 410.846C437.662 395.168 415.646 382.459 388.487 382.459C361.329 382.459 339.313 395.168 339.313 410.846C339.313 426.523 361.329 439.232 388.487 439.232Z" fill="#E0E0E0"/>
<path d="M68.8093 398.126L28.4887 374.85C26.2141 373.534 26.2141 371.413 28.4887 370.097L263.027 234.682C264.305 234.041 265.714 233.707 267.143 233.707C268.572 233.707 269.982 234.041 271.259 234.682L311.59 257.968C313.864 259.274 313.864 261.406 311.59 262.721L77.0509 398.126C75.7741 398.775 74.3622 399.113 72.9301 399.113C71.498 399.113 70.0861 398.775 68.8093 398.126Z" fill="#E0E0E0"/>
<path d="M95.88 53.7948L86.7918 59.058C86.7918 58.65 86.8632 58.2522 86.8632 57.8544V55.2126C86.8632 50.5104 83.5686 48.603 79.4886 50.9592C77.74 52.0351 76.244 53.4755 75.1026 55.182C74.4294 49.266 69.7986 47.022 64.158 50.3166C58.038 53.8356 53.1318 62.3832 53.1318 69.4212V73.3686C53.0874 74.9461 53.4049 76.5127 54.06 77.9484L46.4814 82.3242C45.2943 83.102 44.3065 84.1478 43.5979 85.3774C42.8892 86.607 42.4793 87.9859 42.4014 89.403C42.4014 92.0142 44.2374 93.075 46.4814 91.7694L95.88 63.24C97.0676 62.4628 98.0558 61.4171 98.7645 60.1874C99.4733 58.9577 99.8828 57.5785 99.96 56.1612C99.96 53.55 98.1648 52.4892 95.88 53.7948Z" fill="#EBEBEB"/>
<path d="M143.126 75.6432L136.241 79.6212C136.282 79.3169 136.302 79.0102 136.303 78.7032V76.6632C136.303 73.1136 133.814 71.6754 130.744 73.4502C129.42 74.2574 128.289 75.3434 127.429 76.6326C126.919 72.1752 123.42 70.5126 119.167 72.9708C114.577 75.6228 110.843 82.0794 110.843 87.3834V90.372C110.814 91.5596 111.055 92.7384 111.547 93.8196L105.835 97.1244C104.942 97.7131 104.199 98.5035 103.668 99.4319C103.136 100.36 102.831 101.401 102.775 102.469C102.775 104.438 104.162 105.233 105.835 104.254L143.126 82.722C144.019 82.1327 144.761 81.3422 145.293 80.4138C145.824 79.4855 146.13 78.4454 146.186 77.3772C146.217 75.48 144.84 74.664 143.126 75.6432Z" fill="#EBEBEB"/>
<path d="M213.751 356.643L248.431 336.6C252.012 334.56 253.797 331.826 253.797 329.123C253.797 326.42 253.797 324.309 253.797 324.309L217.831 304.021C216.827 303.366 215.992 302.483 215.393 301.445C214.794 300.406 214.448 299.241 214.384 298.044V255.306L153.837 290.292V333.03C153.903 334.227 154.249 335.391 154.848 336.429C155.447 337.468 156.281 338.351 157.284 339.007L187.884 356.643C195.014 360.764 206.601 360.764 213.751 356.643Z" fill="#263238"/>
<path d="M168.361 340.598V345.403L157.264 339.007C156.262 338.351 155.428 337.467 154.831 336.429C154.234 335.391 153.89 334.226 153.826 333.03V290.302L165.352 283.642C165.597 286.569 165.852 289.598 166.097 292.546L158.008 297.228V330.623C158.069 331.821 158.413 332.987 159.012 334.027C159.612 335.066 160.449 335.948 161.456 336.6L168.361 340.598Z" fill="black"/>
<path d="M158.008 330.633C158.073 331.83 158.419 332.995 159.018 334.034C159.617 335.072 160.452 335.955 161.456 336.61L187.864 351.818C195.004 355.949 206.601 355.949 213.751 351.818L248.431 331.786C255.571 327.706 255.571 320.974 248.431 316.843L222.003 301.614C220.998 300.96 220.161 300.078 219.562 299.039C218.963 298 218.618 296.834 218.556 295.637V262.252L158.018 297.238L158.008 330.633Z" fill="#37474F"/>
<path d="M229.031 305.684L222.003 301.604C220.998 300.95 220.161 300.068 219.562 299.029C218.963 297.99 218.618 296.824 218.556 295.627V262.252L158.008 297.238V330.633C158.073 331.83 158.419 332.995 159.018 334.034C159.617 335.072 160.452 335.955 161.456 336.61L168.361 340.588L229.031 305.684Z" fill="#263238"/>
<path d="M253.786 324.36V329.185C253.786 331.888 251.991 334.58 248.421 336.651L213.741 356.684C209.941 358.711 205.696 359.763 201.389 359.744V354.94C205.697 354.964 209.943 353.912 213.741 351.88L248.421 331.826C251.991 329.725 253.786 327.022 253.786 324.36Z" fill="#455A64"/>
<path d="M60.7921 372.137C62.0989 372.768 63.536 373.084 64.9872 373.057C66.4384 373.031 67.863 372.663 69.1459 371.984L303.297 236.793C304.554 235.977 305.601 234.876 306.351 233.578C307.101 232.28 307.533 230.823 307.612 229.327V39.2904C307.553 37.8368 307.153 36.4173 306.444 35.1468C305.736 33.8763 304.738 32.7905 303.532 31.977C302.225 31.3454 300.788 31.0301 299.337 31.0567C297.885 31.0833 296.461 31.451 295.178 32.13L61.0573 167.28C59.8016 168.098 58.7565 169.2 58.0068 170.497C57.2571 171.794 56.824 173.25 56.7427 174.746V364.823C56.7978 366.274 57.193 367.692 57.8964 368.962C58.5997 370.233 59.5916 371.32 60.7921 372.137Z" fill="#455A64"/>
<path d="M69.146 371.974L303.297 236.793C304.553 235.975 305.598 234.873 306.348 233.576C307.097 232.279 307.53 230.823 307.612 229.327V39.2904C307.612 36.5364 305.684 35.4246 303.297 36.8016L69.1562 171.982C67.9005 172.8 66.8554 173.902 66.1057 175.199C65.356 176.497 64.9229 177.952 64.8416 179.449V369.485C64.8416 372.239 66.7694 373.32 69.146 371.974Z" fill="#007BFF"/>
<path d="M69.146 371.974L303.297 236.793C304.553 235.975 305.598 234.873 306.348 233.576C307.097 232.279 307.53 230.823 307.612 229.327V39.2904C307.612 36.5364 305.684 35.4246 303.297 36.8016L69.1562 171.982C67.9005 172.8 66.8554 173.902 66.1057 175.199C65.356 176.497 64.9229 177.952 64.8416 179.449V369.485C64.8416 372.239 66.7694 373.32 69.146 371.974Z" fill="#37474F"/>
<path d="M68.5135 376.9C67.2883 377.428 65.9639 377.687 64.63 377.659C63.296 377.631 61.9837 377.316 60.7819 376.737C59.5744 375.923 58.5758 374.835 57.8669 373.563C57.1581 372.29 56.7589 370.869 56.7019 369.413V352.165L64.7905 356.847V374.095C64.8313 376.604 66.4225 377.737 68.5135 376.9Z" fill="#263238"/>
<path d="M64.8313 356.847V374.085C64.8313 376.839 66.7591 377.951 69.1357 376.574L303.297 241.393C304.554 240.575 305.6 239.471 306.35 238.172C307.1 236.872 307.532 235.415 307.612 233.917V216.648L64.8313 356.847Z" fill="#37474F"/>
<path opacity="0.2" d="M64.8416 356.806V374.085C64.8416 376.839 66.7694 377.951 69.146 376.574L303.297 241.393C304.554 240.575 305.6 239.471 306.35 238.172C307.1 236.872 307.532 235.415 307.612 233.917V216.648L64.8416 356.806Z" fill="black"/>
<path d="M72.9302 335.203V182.141C72.9792 181.242 73.2394 180.368 73.6895 179.588C74.1396 178.808 74.767 178.145 75.521 177.653L296.922 49.827C298.36 49.0008 299.513 49.674 299.513 51.3162V204.388C299.464 205.287 299.204 206.161 298.754 206.941C298.304 207.721 297.676 208.384 296.922 208.876L75.4802 336.702C74.0828 337.528 72.9302 336.855 72.9302 335.203Z" fill="#007BFF"/>
<path opacity="0.3" d="M72.9302 335.203V182.141C72.9792 181.242 73.2394 180.368 73.6895 179.588C74.1396 178.808 74.767 178.145 75.521 177.653L296.922 49.827C298.36 49.0008 299.513 49.674 299.513 51.3162V204.388C299.464 205.287 299.204 206.161 298.754 206.941C298.304 207.721 297.676 208.384 296.922 208.876L75.4802 336.702C74.0828 337.528 72.9302 336.855 72.9302 335.203Z" fill="black"/>
<path d="M186.221 292.23C185.038 292.995 184.052 294.028 183.343 295.245C182.634 296.463 182.222 297.831 182.141 299.237C182.141 301.818 183.957 302.869 186.221 301.573C187.406 300.81 188.393 299.777 189.102 298.559C189.811 297.341 190.222 295.973 190.301 294.566C190.271 291.985 188.455 290.935 186.221 292.23Z" fill="#455A64"/>
<path d="M66.1063 175.185C65.338 176.48 64.9002 177.944 64.8313 179.449V356.847L56.7427 352.165V174.787C56.8017 173.281 57.2403 171.815 58.0177 170.524L66.1063 175.185Z" fill="#263238"/>
<path d="M340.221 38.3929C339.873 38.2177 339.484 38.1412 339.095 38.1718C338.707 38.2023 338.334 38.3388 338.018 38.5663L104.652 173.339C103.765 173.908 103.026 174.679 102.494 175.588C101.963 176.498 101.653 177.52 101.592 178.571V335.906C101.556 336.417 101.655 336.928 101.879 337.388C102.102 337.848 102.443 338.241 102.867 338.528C103.357 338.793 105.927 340.303 106.723 340.721C106.998 340.862 107.305 340.927 107.614 340.909C107.922 340.891 108.22 340.791 108.477 340.619L341.873 205.795C342.76 205.227 343.5 204.456 344.032 203.547C344.564 202.637 344.873 201.615 344.933 200.563V42.4627C344.985 42.0688 344.924 41.6684 344.758 41.3076C344.592 40.9467 344.327 40.64 343.995 40.4227C343.424 40.2289 340.772 38.7601 340.221 38.3929Z" fill="#007BFF"/>
<path d="M108.518 175.532L341.873 40.8C343.546 39.8412 344.933 40.6266 344.933 42.5544V200.654C344.873 201.706 344.564 202.729 344.032 203.638C343.5 204.548 342.76 205.318 341.873 205.887L108.518 340.619C106.845 341.578 105.458 340.017 105.458 338.089V180.764C105.518 179.713 105.827 178.69 106.359 177.78C106.891 176.871 107.631 176.1 108.518 175.532Z" fill="#FAFAFA"/>
<path d="M343.23 41.361C343.791 41.361 343.883 42.075 343.883 42.5034V200.603C343.828 201.473 343.572 202.318 343.134 203.072C342.697 203.827 342.091 204.469 341.363 204.949L108.008 339.731C107.863 339.831 107.694 339.888 107.518 339.895C106.988 339.895 106.498 339.048 106.498 338.089V180.764C106.553 179.893 106.809 179.046 107.246 178.291C107.683 177.535 108.29 176.891 109.018 176.409L342.383 41.6364C342.638 41.475 342.929 41.3803 343.23 41.361ZM343.23 40.341C342.75 40.3591 342.283 40.4996 341.873 40.749L108.518 175.532C107.631 176.1 106.891 176.871 106.359 177.78C105.827 178.69 105.518 179.713 105.458 180.764V338.089C105.458 339.619 106.304 340.915 107.498 340.915C107.858 340.911 108.211 340.809 108.518 340.619L341.873 205.795C342.76 205.227 343.5 204.456 344.032 203.547C344.564 202.637 344.873 201.614 344.933 200.563V42.4626C344.933 41.0856 344.25 40.3002 343.261 40.3002L343.23 40.341Z" fill="#E0E0E0"/>
<path d="M102.898 338.528C103.224 338.701 105.58 340.048 106.61 340.629C106.238 340.323 105.944 339.934 105.75 339.492C105.557 339.051 105.471 338.57 105.499 338.089V190.648L101.623 188.384V335.906C101.591 336.416 101.691 336.926 101.915 337.385C102.138 337.844 102.477 338.238 102.898 338.528Z" fill="#F0F0F0"/>
<path d="M344.903 42.4728C344.903 40.5654 343.536 39.7902 341.843 40.749L108.518 175.532C107.631 176.1 106.891 176.871 106.359 177.78C105.827 178.69 105.518 179.713 105.458 180.764V190.648L344.903 52.3974V42.4728Z" fill="#007BFF"/>
<g opacity="0.4">
<path opacity="0.4" d="M341.873 40.8L108.518 175.532C107.627 176.085 106.893 176.857 106.386 177.776L102.551 175.552C103.05 174.646 103.773 173.884 104.652 173.339L338.018 38.5662C338.333 38.3401 338.703 38.2036 339.089 38.1713C339.475 38.1389 339.863 38.212 340.211 38.3826C340.751 38.7192 343.271 40.1472 343.903 40.4838C343.564 40.3694 343.203 40.3384 342.85 40.3935C342.496 40.4485 342.161 40.588 341.873 40.8Z" fill="white"/>
</g>
<path opacity="0.15" d="M101.623 188.394V178.571C101.661 177.488 101.98 176.433 102.551 175.511L106.396 177.725C105.842 178.63 105.533 179.663 105.499 180.724V190.607L101.623 188.394Z" fill="black"/>
<path d="M105.499 190.648L105.488 208.457L344.893 70.227V52.3974L105.499 190.648Z" fill="#EBEBEB"/>
<path d="M115.464 189.332L130.948 180.438V189.302L115.454 198.247L115.464 189.332Z" fill="#E0E0E0"/>
<path d="M134.773 178.184V181.693L142.494 177.225V173.726L134.773 178.184Z" fill="#E0E0E0"/>
<path d="M134.773 183.6V187.109L142.494 182.641V179.143L134.773 183.6Z" fill="#E0E0E0"/>
<path d="M146.36 171.493V175.001L154.081 170.544V167.035L146.36 171.493Z" fill="#E0E0E0"/>
<path d="M146.36 176.909V180.418L154.081 175.96V172.451L146.36 176.909Z" fill="#E0E0E0"/>
<path d="M157.937 164.801V168.31L165.658 163.853V160.344L157.937 164.801Z" fill="#E0E0E0"/>
<path d="M157.937 170.218V173.726L165.658 169.269V165.76L157.937 170.218Z" fill="#E0E0E0"/>
<path d="M192.688 144.738V148.247L200.41 143.789V140.281L192.688 144.738Z" fill="#E0E0E0"/>
<path d="M192.688 150.164V153.663L200.41 149.206V145.697L192.688 150.164Z" fill="#E0E0E0"/>
<path d="M204.275 138.057V141.556L211.997 137.098V133.589L204.275 138.057Z" fill="#E0E0E0"/>
<path d="M204.275 143.473V146.972L211.997 142.514V139.006L204.275 143.473Z" fill="#E0E0E0"/>
<path d="M215.852 131.366L215.863 134.875L223.584 130.417V126.908L215.852 131.366Z" fill="#E0E0E0"/>
<path d="M215.852 136.782L215.863 140.291L223.584 135.823V132.325L215.852 136.782Z" fill="#E0E0E0"/>
<path d="M169.524 158.12L188.833 146.972V155.887L169.524 167.035V158.12Z" fill="#E0E0E0"/>
<path d="M227.45 124.675L242.933 115.78V124.654L227.44 133.6L227.45 124.675Z" fill="#E0E0E0"/>
<path d="M246.748 113.526L246.758 117.035L254.48 112.577V109.069L246.748 113.526Z" fill="#E0E0E0"/>
<path d="M246.748 118.942L246.758 122.451L254.48 117.994V114.485L246.748 118.942Z" fill="#E0E0E0"/>
<path d="M258.335 106.845V110.354L266.057 105.886V102.377L258.335 106.845Z" fill="#E0E0E0"/>
<path d="M258.335 112.261V115.77L266.057 111.302V107.794L258.335 112.261Z" fill="#E0E0E0"/>
<path d="M269.923 100.154V103.663L277.644 99.195V95.6862L269.923 100.154Z" fill="#E0E0E0"/>
<path d="M269.923 105.57V109.079L277.644 104.611V101.113L269.923 105.57Z" fill="#E0E0E0"/>
<path d="M304.674 80.0904V83.5992L312.395 79.1316V75.6228L304.674 80.0904Z" fill="#E0E0E0"/>
<path d="M304.674 85.5066V89.0154L312.395 84.5478V81.0492L304.674 85.5066Z" fill="#E0E0E0"/>
<path d="M316.261 73.3992V76.908L323.983 72.4506V68.9418L316.261 73.3992Z" fill="#E0E0E0"/>
<path d="M316.261 78.8154V82.3242L323.983 77.8668V74.358L316.261 78.8154Z" fill="#E0E0E0"/>
<path d="M327.838 66.708V70.2168L335.57 65.7594V62.2506L327.838 66.708Z" fill="#E0E0E0"/>
<path d="M327.838 72.1242V75.633L335.57 71.1756V67.6668L327.838 72.1242Z" fill="#E0E0E0"/>
<path d="M281.51 93.4626L300.818 82.314V91.239L281.51 102.377V93.4626Z" fill="#E0E0E0"/>
<path d="M105.499 190.648L101.623 188.384V206.224L105.488 208.457L105.499 190.648Z" fill="#E0E0E0"/>
<path d="M283.121 81.0492V81.7122C283.121 82.7322 283.856 83.181 284.764 82.6608L331.684 55.5798C332.162 55.2657 332.56 54.8436 332.845 54.3475C333.13 53.8514 333.295 53.2952 333.326 52.7238V52.071C333.326 51.051 332.591 50.592 331.684 51.1224L284.764 78.2034C284.285 78.5147 283.886 78.9347 283.601 79.4293C283.316 79.9239 283.151 80.479 283.121 81.0492Z" fill="#F5F5F5"/>
<path d="M333.316 52.7238V52.071C333.316 51.051 332.581 50.592 331.673 51.1224L325.553 54.6312V59.0886L331.673 55.5798C332.152 55.2657 332.55 54.8436 332.835 54.3475C333.12 53.8514 333.285 53.2952 333.316 52.7238Z" fill="#455A64"/>
<path d="M109.354 210.671L341.047 76.9284V85.8228L128.653 208.457V324.38L109.354 335.519V210.671Z" fill="#F0F0F0"/>
<path d="M128.653 208.457L147.951 197.319V206.213L128.653 217.372V208.457Z" fill="#007BFF"/>
<path d="M128.653 279.786L147.951 268.648V277.542L128.653 288.701V279.786Z" fill="#007BFF"/>
<path d="M128.653 288.701L147.951 277.562V286.457L128.653 297.616V288.701Z" fill="#007BFF"/>
<path opacity="0.8" d="M128.653 288.701L147.951 277.562V286.457L128.653 297.616V288.701Z" fill="white"/>
<path d="M244.484 212.905L263.782 201.766V210.661L244.484 221.819V212.905Z" fill="#007BFF"/>
<path opacity="0.3" d="M244.484 212.905L263.782 201.766V210.661L244.484 221.819V212.905Z" fill="black"/>
<path d="M244.484 221.819L263.782 210.681V219.575L244.484 230.734V221.819Z" fill="#007BFF"/>
<path opacity="0.4" d="M244.484 221.819L263.782 210.681V219.575L244.484 230.734V221.819Z" fill="black"/>
<path d="M244.484 230.744L263.782 219.606V228.5L244.484 239.659V230.744Z" fill="#007BFF"/>
<path opacity="0.5" d="M244.484 230.744L263.782 219.606V228.5L244.484 239.659V230.744Z" fill="black"/>
<path d="M244.484 239.659L263.782 228.521V237.415L244.484 248.574V239.659Z" fill="#007BFF"/>
<path opacity="0.3" d="M244.484 239.659L263.782 228.521V237.415L244.484 248.574V239.659Z" fill="black"/>
<path d="M225.196 152.714L244.484 141.576V186.16L225.196 197.319V152.714Z" fill="#007BFF"/>
<path d="M225.196 206.224L244.484 195.085V257.499L225.196 268.658V206.224Z" fill="#007BFF"/>
<path d="M147.951 250.808L167.239 239.669V248.564L147.951 259.723V250.808Z" fill="#007BFF"/>
<path opacity="0.3" d="M147.951 250.808L167.239 239.669V248.564L147.951 259.723V250.808Z" fill="black"/>
<path d="M186.578 183.926L205.877 172.788V181.682L186.578 192.841V183.926Z" fill="#007BFF"/>
<path opacity="0.6" d="M186.578 183.926L205.877 172.788V181.682L186.578 192.841V183.926Z" fill="white"/>
<path d="M283.121 181.693L302.41 170.554V179.449L283.121 190.607V181.693Z" fill="#007BFF"/>
<path opacity="0.8" d="M283.121 181.693L302.41 170.554V179.449L283.121 190.607V181.693Z" fill="white"/>
<path d="M283.121 199.532L302.41 188.394V197.288L283.121 208.447V199.532Z" fill="#007BFF"/>
<path d="M109.14 210.273L108.905 210.406V336.355L341.272 202.174L341.516 202.042V76.092L109.14 210.273ZM340.588 192.596L322.228 203.194V195.371L340.588 184.783V192.596ZM109.834 219.871L128.194 209.273V217.097L109.834 227.695V219.871ZM224.726 207.06V214.883L206.366 225.481V217.658L224.726 207.06ZM206.366 216.556V208.733L224.726 198.135V205.958L206.366 216.556ZM225.675 206.509L244.035 195.911V203.735L225.675 214.333V206.509ZM225.675 205.408V197.594L244.035 186.986V194.82L225.675 205.408ZM225.675 196.493V188.7L244.035 178.102V185.926L225.675 196.493ZM225.675 187.568V179.755L244.035 169.147V176.97L225.675 187.568ZM224.726 188.119L206.366 198.716V190.893L224.726 180.295V188.119ZM224.726 189.22V197.044L206.366 207.641V199.818L224.726 189.22ZM205.418 208.192L187.058 218.79V210.967L205.418 200.369V208.192ZM205.418 209.284V217.107L187.058 227.705V219.881L205.418 209.284ZM205.418 218.209V226.032L187.058 236.63V228.806L205.418 218.209ZM205.418 227.123V234.947L187.058 245.545V237.721L205.418 227.123ZM206.366 226.573L224.726 215.975V223.798L206.366 234.396V226.573ZM224.726 224.9V232.723L206.366 243.321V235.498L224.726 224.9ZM225.675 224.349L244.035 213.751V221.575L225.675 232.172V224.349ZM225.675 223.247V215.424L244.035 204.826V212.65L225.675 223.247ZM244.984 204.286L263.344 193.688V201.511L244.984 212.109V204.286ZM244.984 203.184V195.361L263.344 184.763V192.586L244.984 203.184ZM244.984 194.269V186.446L263.344 175.848V183.671L244.984 194.269ZM244.984 185.344V177.48L263.344 166.882V174.706L244.984 185.344ZM244.984 176.429V168.606L263.344 158.008V165.821L244.984 176.429ZM244.984 167.504V159.681L263.344 149.083V156.907L244.984 167.504ZM244.035 168.055L225.675 178.653V170.83L244.035 160.232V168.055ZM224.726 179.204L206.366 189.802V181.978L224.726 171.38V179.204ZM205.418 190.352L187.058 200.95V193.127L205.418 182.529V190.352ZM205.418 191.444V199.267L187.058 209.865V202.042L205.418 191.444ZM186.109 210.416L167.749 221.014V213.18L186.109 202.582V210.416ZM186.109 211.517V219.3L167.749 229.908V222.085L186.109 211.517ZM186.109 220.432V228.256L167.749 238.853V231.03L186.109 220.432ZM186.109 229.357V237.17L167.749 247.778V239.955L186.109 229.357ZM186.109 238.272V246.095L167.749 256.693V248.88L186.109 238.272ZM186.109 247.197V255L167.749 265.608V257.785L186.109 247.197ZM187.058 246.646L205.418 236.048V243.872L187.058 254.47V246.646ZM205.418 244.963V252.787L187.058 263.384V255.561L205.418 244.963ZM206.366 244.412L224.726 233.815V241.638L206.366 252.236V244.412ZM225.675 233.264L244.035 222.666V230.52L225.675 241.118V233.264ZM244.984 222.125L263.344 211.528V219.351L244.984 229.949V222.125ZM244.984 221.024V213.18L263.344 202.582V210.406L244.984 221.024ZM264.292 202.052L282.652 191.454V199.277L264.292 209.875V202.052ZM264.292 200.96V193.137L282.652 182.539V190.363L264.292 200.96ZM264.292 192.035V184.212L282.652 173.614V181.438L264.292 192.035ZM264.292 183.121V175.297L282.652 164.699V172.523L264.292 183.121ZM264.292 174.196V166.372L282.652 155.774V163.598L264.292 174.196ZM264.292 165.281V157.457L282.652 146.86V154.683L264.292 165.281ZM264.292 156.356V148.532L282.652 137.935V145.758L264.292 156.356ZM264.292 147.441V139.618L282.652 129.02V136.843L264.292 147.441ZM263.344 147.982L244.984 158.59V150.766L263.344 140.168V147.982ZM244.035 159.12L225.675 169.718V161.905L244.035 151.297V159.12ZM224.726 170.269L206.366 180.866V173.043L224.726 162.445V170.269ZM205.418 181.417L187.058 192.015V184.192L205.418 173.594V181.417ZM186.109 192.576L167.749 203.174V195.35L186.109 184.753V192.576ZM186.109 193.678V201.491L167.749 212.099V204.275L186.109 193.678ZM166.801 212.639L148.441 223.237V215.424L166.801 204.816V212.639ZM166.801 213.741V221.564L148.441 232.162V224.339L166.801 213.741ZM166.801 222.656V230.52L148.441 241.118V233.294L166.801 222.656ZM166.801 231.581V239.404L148.441 250.002V242.179L166.801 231.581ZM166.801 240.496V248.319L148.441 258.917V251.104L166.801 240.496ZM166.801 249.421V257.244L148.441 267.842V260.018L166.801 249.421ZM166.801 258.335V266.159L148.441 276.757V268.943L166.801 258.335ZM166.801 267.26V275.084L148.441 285.682V277.858L166.801 267.26ZM167.749 266.71L186.109 256.112V263.935L167.749 274.533V266.71ZM186.109 265.037V272.86L167.749 283.458V275.635L186.109 265.037ZM187.058 264.486L205.418 253.888V261.712L187.058 272.309V264.486ZM206.366 253.337L224.726 242.74V250.563L206.366 261.161V253.337ZM225.675 242.189L244.035 231.591V239.414L225.675 250.012V242.189ZM244.984 231.04L263.344 220.442V228.266L244.984 238.864V231.04ZM264.292 219.892L282.652 209.294V217.117L264.292 227.715V219.892ZM264.292 218.8V210.977L282.652 200.379V208.202L264.292 218.8ZM283.56 199.828L301.92 189.23V197.054L283.56 207.652V199.828ZM283.56 198.727V190.903L301.92 180.305V188.129L283.56 198.727ZM283.56 189.812V181.988L301.92 171.36V179.183L283.56 189.812ZM283.56 180.887V173.063L301.92 162.466V170.34L283.56 180.887ZM283.56 171.972V164.149L301.92 153.551V161.374L283.56 171.972ZM283.56 163.047V155.224L301.92 144.626V152.449L283.56 163.047ZM283.56 154.132V146.309L301.92 135.711V143.534L283.56 154.132ZM283.56 145.207V137.384L301.92 126.786V134.64L283.56 145.207ZM283.56 136.292V128.52L301.92 117.922V125.746L283.56 136.292ZM283.56 127.367V119.544L301.92 108.946V116.77L283.56 127.367ZM282.611 127.918L264.251 138.516V130.693L282.611 120.095V127.918ZM263.303 139.067L244.943 149.665V141.841L263.303 131.243V139.067ZM243.994 150.215L225.634 160.813V153L243.994 142.402V150.215ZM224.726 161.364L206.366 171.962V164.138L224.726 153.541V161.364ZM205.418 172.513L187.058 183.11V175.287L205.418 164.689V172.513ZM186.109 183.651L167.749 194.259V186.436L186.109 175.838V183.651ZM166.801 194.82L148.441 205.418V197.605L166.801 186.997V194.82ZM166.801 195.922V203.745L148.441 214.343V206.519L166.801 195.922ZM147.492 214.894L129.132 225.491V217.668L147.492 207.07V214.894ZM147.492 215.985V223.808L129.132 234.406V226.583L147.492 215.985ZM147.492 224.91V232.733L129.132 243.331V235.508L147.492 224.91ZM147.492 233.825V241.648L129.132 252.246V244.423L147.492 233.825ZM147.492 242.75V250.573L129.132 261.12V253.297L147.492 242.75ZM147.492 251.665V259.488L129.132 270.086V262.242L147.492 251.665ZM147.492 260.59V268.413L129.132 279.011V271.187L147.492 260.59ZM147.492 269.504V277.328L129.132 287.926V280.102L147.492 269.504ZM147.492 278.429V286.253L129.132 296.82V288.997L147.492 278.429ZM147.492 287.344V295.168L129.132 305.765V297.942L147.492 287.344ZM148.441 286.804L166.801 276.196V284.019L148.441 294.617V286.804ZM166.801 285.121V292.944L148.441 303.542V295.698L166.801 285.121ZM167.749 284.57L186.109 273.972V281.795L167.749 292.393V284.57ZM187.058 273.36L205.418 262.762V270.586L187.058 281.183V273.36ZM206.366 262.211L224.726 251.614V259.437L206.366 270.035V262.211ZM225.675 251.073L244.035 240.465V248.288L225.675 258.886V251.073ZM244.984 239.924L263.344 229.327V237.15L244.984 247.748V239.924ZM264.292 228.776L282.652 218.178V226.001L264.292 236.599V228.776ZM283.56 217.668L301.92 207.06V214.883L283.56 225.481V217.668ZM283.56 216.566V208.743L301.92 198.145V205.969L283.56 216.566ZM302.94 197.605L321.3 186.997V194.82L302.94 205.418V197.605ZM302.94 196.503V188.7L321.3 178.102V185.926L302.94 196.503ZM302.94 187.578V179.765L321.3 169.157V176.98L302.94 187.578ZM302.94 178.663V170.84L321.3 160.242V168.065L302.94 178.663ZM302.94 169.738V161.925L321.3 151.317V159.12L302.94 169.738ZM302.94 160.823V153L321.3 142.402V150.226L302.94 160.823ZM302.94 151.898V144.085L321.3 133.477V141.301L302.94 151.898ZM302.94 142.984V135.16L321.3 124.562V132.386L302.94 142.984ZM302.94 134.059V126.245L321.3 115.637V123.42L302.94 134.059ZM302.94 125.144V117.3L321.3 106.702V114.526L302.94 125.144ZM302.94 116.219V108.406L321.3 97.7976V105.621L302.94 116.219ZM302.94 107.304V99.4806L321.3 88.8828V96.7062L302.94 107.304ZM301.981 107.855L283.621 118.453V110.629L301.981 100.031V107.855ZM282.683 119.003L264.323 129.601V121.778L282.683 111.18V119.003ZM263.374 130.142L245.014 140.75V132.926L263.374 122.329V130.142ZM244.066 141.29L225.706 151.888V144.075L244.066 133.477V141.29ZM224.757 152.439L206.397 163.037V155.224L224.757 144.626V152.439ZM205.448 163.588L187.088 174.185V166.372L205.448 155.774V163.588ZM186.14 174.736L167.78 185.334V177.48L186.14 166.882V174.736ZM166.831 185.885L148.471 196.483V188.7L166.831 178.092V185.885ZM147.492 197.033L129.132 207.631V199.808L147.492 189.21V197.033ZM147.492 198.125V205.948L129.132 216.546V208.723L147.492 198.125ZM109.834 228.796L128.194 218.198V226.022L109.834 236.62V228.796ZM109.834 237.711L128.194 227.113V234.937L109.834 245.534V237.711ZM109.834 246.636L128.194 236.038V243.862L109.834 254.459V246.636ZM109.834 255.551L128.194 244.953V252.776L109.834 263.374V255.551ZM109.834 264.476L128.194 253.878V261.701L109.834 272.299V264.476ZM109.834 273.391L128.194 262.793V270.616L109.834 281.214V273.391ZM109.834 282.316L128.194 271.718V279.541L109.834 290.139V282.316ZM109.834 291.23L128.194 280.633V288.456L109.834 299.054V291.23ZM109.834 300.155L128.194 289.558V297.381L109.834 307.979V300.155ZM109.834 309.07L128.194 298.472V306.296L109.834 316.894V309.07ZM109.834 317.995L128.194 307.397V315.18L109.834 325.778V317.995ZM129.132 306.847L147.492 296.249V304.072L129.132 314.67V306.847ZM147.492 305.164V312.956L129.132 323.564V315.761L147.492 305.164ZM148.441 304.613L166.801 294.015V301.818L148.441 312.416V304.613ZM167.749 293.474L186.109 282.877V290.7L167.749 301.298V293.474ZM187.058 282.326L205.418 271.728V279.48L187.058 290.078V282.326ZM206.366 271.177L224.726 260.579V268.372L206.366 278.97V271.177ZM225.675 260.029L244.035 249.431V257.224L225.675 267.821V260.029ZM244.984 248.88L263.344 238.282V246.075L244.984 256.673V248.88ZM264.292 237.731L282.652 227.134V234.926L264.292 245.524V237.731ZM283.56 226.583L301.92 215.985V223.778L283.56 234.376V226.583ZM302.94 215.444L321.3 204.836V212.629L302.94 223.227V215.444ZM302.94 214.343V206.519L321.3 195.922V203.745L302.94 214.343ZM340.598 183.682L322.238 194.279V186.456L340.598 175.858V183.682ZM340.598 174.757L322.238 185.354V177.531L340.598 166.943V174.757ZM340.598 165.842L322.218 176.46V168.637L340.578 158.039L340.598 165.842ZM340.598 156.917L322.238 167.515V159.691L340.598 149.093V156.917ZM340.598 148.002L322.238 158.6V150.776L340.598 140.179V148.002ZM340.598 139.077L322.238 149.675V141.851L340.598 131.254V139.077ZM340.598 130.162L322.218 140.76V132.937L340.578 122.339L340.598 130.162ZM340.598 121.237L322.238 131.835V124.012L340.598 113.414V121.237ZM340.598 112.322L322.238 122.92V115.097L340.598 104.499V112.322ZM340.598 103.397L322.238 113.995V106.172L340.598 95.574V103.397ZM340.598 94.4826L322.218 105.06V97.257L340.578 86.6592L340.598 94.4826ZM340.598 85.5576L322.238 96.1554V88.3422L340.598 77.7444V85.5576ZM128.183 200.359V208.182L109.823 218.77V210.956L128.183 200.359ZM109.823 326.91L128.183 316.312V324.105L109.823 334.703V326.91ZM322.218 212.089V204.296L340.578 193.698V201.491L322.218 212.089Z" fill="#E0E0E0"/>
<path d="M263.782 130.407L341.047 85.833V130.438L263.782 174.991V130.407Z" fill="#FAFAFA"/>
<path d="M263.262 175.879V130.111L263.517 129.968L341.547 84.9558V130.733L263.262 175.879ZM264.282 130.703V174.114L340.527 130.142V86.7L264.282 130.703Z" fill="#E0E0E0"/>
<path d="M267.679 164.22H267.556C267.46 164.183 267.382 164.111 267.338 164.017C267.294 163.924 267.288 163.818 267.322 163.72L277.766 135.16C277.787 135.109 277.818 135.062 277.858 135.024C277.898 134.986 277.946 134.957 277.998 134.938C278.05 134.92 278.105 134.913 278.16 134.918C278.216 134.923 278.269 134.939 278.317 134.966L289.609 141.78L301.002 130.172C301.071 130.116 301.158 130.085 301.247 130.085C301.336 130.085 301.422 130.116 301.492 130.172L312.712 137.547L324.105 109.477C324.126 109.428 324.156 109.384 324.195 109.348C324.233 109.311 324.279 109.283 324.328 109.265C324.378 109.247 324.431 109.239 324.484 109.242C324.536 109.245 324.588 109.259 324.635 109.283L336.212 115.219C336.257 115.242 336.296 115.273 336.328 115.311C336.36 115.349 336.384 115.393 336.4 115.44C336.415 115.488 336.42 115.538 336.416 115.587C336.412 115.637 336.398 115.685 336.376 115.729C336.353 115.773 336.322 115.813 336.284 115.845C336.246 115.877 336.202 115.901 336.154 115.916C336.107 115.932 336.057 115.937 336.008 115.933C335.958 115.929 335.91 115.915 335.866 115.892L324.646 110.15L313.222 138.271C313.2 138.323 313.167 138.37 313.124 138.407C313.082 138.444 313.031 138.471 312.977 138.485C312.928 138.51 312.874 138.524 312.819 138.524C312.764 138.524 312.709 138.51 312.661 138.485L301.339 131.029L289.955 142.627C289.895 142.687 289.816 142.726 289.731 142.737C289.646 142.748 289.56 142.731 289.486 142.688L278.338 136.017L268.056 164.098C268.009 164.149 267.95 164.188 267.884 164.209C267.817 164.231 267.747 164.234 267.679 164.22Z" fill="#455A64"/>
<path d="M278.124 134.008C277.782 134.231 277.498 134.532 277.296 134.887C277.093 135.242 276.979 135.64 276.961 136.048C276.961 136.792 277.481 137.068 278.124 136.721C278.465 136.497 278.748 136.195 278.95 135.841C279.152 135.486 279.268 135.089 279.286 134.681C279.286 133.936 278.766 133.62 278.124 134.008Z" fill="#007BFF"/>
<path d="M289.68 140.903C289.34 141.128 289.057 141.43 288.855 141.784C288.653 142.139 288.537 142.535 288.517 142.943C288.517 143.687 289.037 143.963 289.68 143.616C290.02 143.391 290.303 143.089 290.505 142.735C290.707 142.38 290.823 141.983 290.843 141.576C290.863 140.842 290.343 140.536 289.68 140.903Z" fill="#007BFF"/>
<path d="M301.277 129.081C300.937 129.306 300.655 129.608 300.453 129.962C300.251 130.317 300.135 130.714 300.115 131.121C300.115 131.866 300.635 132.141 301.277 131.794C301.619 131.57 301.902 131.269 302.104 130.914C302.306 130.559 302.422 130.162 302.44 129.754C302.44 129.02 301.92 128.714 301.277 129.081Z" fill="#007BFF"/>
<path d="M312.854 136.68C312.513 136.903 312.229 137.205 312.026 137.559C311.824 137.914 311.709 138.312 311.692 138.72C311.692 139.465 312.212 139.74 312.854 139.393C313.196 139.17 313.48 138.869 313.682 138.514C313.885 138.159 313.999 137.761 314.017 137.353C314.017 136.68 313.497 136.343 312.854 136.68Z" fill="#007BFF"/>
<path d="M324.431 108.212C324.089 108.435 323.806 108.737 323.603 109.091C323.401 109.446 323.286 109.844 323.269 110.252C323.269 110.996 323.789 111.272 324.431 110.925C324.773 110.701 325.056 110.4 325.258 110.045C325.46 109.69 325.576 109.293 325.594 108.885C325.594 108.12 325.074 107.834 324.431 108.212Z" fill="#007BFF"/>
<path d="M336.008 114.148C335.666 114.371 335.383 114.673 335.18 115.028C334.978 115.382 334.863 115.78 334.846 116.188C334.846 116.933 335.366 117.208 336.008 116.861C336.35 116.638 336.634 116.337 336.836 115.982C337.039 115.627 337.153 115.229 337.171 114.821C337.171 114.077 336.651 113.771 336.008 114.148Z" fill="#007BFF"/>
<path d="M373.187 250.094L352.645 261.956L373.187 273.819L393.73 261.956L373.187 250.094Z" fill="#455A64"/>
<path d="M393.73 261.936V309.111L373.187 320.974V273.829L393.73 261.936Z" fill="#37474F"/>
<path d="M373.187 273.829V320.974L352.645 309.111V261.936L373.187 273.829Z" fill="#263238"/>
<path d="M346.157 286.161L325.615 298.024L346.157 309.886L366.7 298.024L346.157 286.161Z" fill="#007BFF"/>
<path opacity="0.3" d="M346.157 286.161L325.615 298.024L346.157 309.886L366.7 298.024L346.157 286.161Z" fill="white"/>
<path d="M366.7 297.993V324.717L346.157 336.58V309.886L366.7 297.993Z" fill="#007BFF"/>
<path d="M346.157 309.886V336.58L325.615 324.717V298.003L346.157 309.886Z" fill="#007BFF"/>
<path opacity="0.1" d="M346.157 309.886V336.58L325.615 324.717V298.003L346.157 309.886Z" fill="black"/>
<path d="M319.127 290.669L298.585 302.532L319.127 314.395L339.67 302.532L319.127 290.669Z" fill="#007BFF"/>
<path opacity="0.88" d="M319.127 290.669L298.585 302.532L319.127 314.395L339.67 302.532L319.127 290.669Z" fill="white"/>
<path d="M339.67 302.512V340.323L319.127 352.186V314.395L339.67 302.512Z" fill="#007BFF"/>
<path opacity="0.75" d="M339.67 302.512V340.323L319.127 352.186V314.395L339.67 302.512Z" fill="white"/>
<path d="M319.127 314.395V352.186L298.585 340.323V302.512L319.127 314.395Z" fill="#007BFF"/>
<path opacity="0.6" d="M319.127 314.395V352.186L298.585 340.323V302.512L319.127 314.395Z" fill="white"/>
<path d="M292.097 330.735L271.555 342.598L292.097 354.46L312.64 342.598L292.097 330.735Z" fill="#007BFF"/>
<path opacity="0.3" d="M292.097 330.735L271.555 342.598L292.097 354.46L312.64 342.598L292.097 330.735Z" fill="black"/>
<path d="M312.64 342.567V355.929L292.097 367.792V354.46L312.64 342.567Z" fill="#007BFF"/>
<path opacity="0.4" d="M312.64 342.567V355.929L292.097 367.792V354.46L312.64 342.567Z" fill="black"/>
<path d="M292.097 354.46V367.792L271.555 355.929V342.567L292.097 354.46Z" fill="#007BFF"/>
<path opacity="0.55" d="M292.097 354.46V367.792L271.555 355.929V342.567L292.097 354.46Z" fill="black"/>
<path d="M180.183 413.712V421.495L172.502 400.615V392.853L180.183 413.712Z" fill="#263238"/>
<path d="M180.193 413.722V421.495L211.874 410.499V402.727L180.193 413.722Z" fill="#37474F"/>
<path d="M172.502 392.843L180.193 413.722L211.874 402.727C203.174 395.138 188.047 391.343 172.502 392.843Z" fill="#455A64"/>
<path d="M139.403 415.14C139.398 415.218 139.398 415.297 139.403 415.375V415.14Z" fill="#007BFF"/>
<path d="M177.031 423.524L172.38 445.658C153.173 443.782 139.291 434.071 139.454 422.963V415.395C139.454 426.411 153.296 436.03 172.39 437.886L175.613 422.678L177.031 423.524Z" fill="#007BFF"/>
<path opacity="0.4" d="M177.031 423.524L172.38 445.658C153.173 443.782 139.291 434.071 139.454 422.963V415.395C139.454 426.411 153.296 436.03 172.39 437.886L175.613 422.678L177.031 423.524Z" fill="black"/>
<path d="M175.93 438.141V445.913C183.858 446.36 191.798 445.262 199.308 442.68C208.366 439.538 214.761 434.52 217.321 428.635C218.072 426.922 218.474 425.078 218.504 423.208C218.504 422.464 218.504 415.171 218.504 415.171C218.504 415.171 216.311 414.997 213.741 412.264L207.805 414.304L180.642 423.728L175.93 438.141Z" fill="#007BFF"/>
<path opacity="0.6" d="M175.93 438.141V445.913C183.858 446.36 191.798 445.262 199.308 442.68C208.366 439.538 214.761 434.52 217.321 428.635C218.072 426.922 218.474 425.078 218.504 423.208C218.504 422.464 218.504 415.171 218.504 415.171C218.504 415.171 216.311 414.997 213.741 412.264L207.805 414.304L180.642 423.728L175.93 438.141Z" fill="white"/>
<path d="M152.286 406.276L175.889 419.903V412.131L152.286 398.504V406.276Z" fill="#007BFF"/>
<path opacity="0.1" d="M152.286 406.276L175.889 419.903V412.131L152.286 398.504V406.276Z" fill="black"/>
<path d="M139.74 412.59C137.159 424.738 151.684 435.866 172.38 437.886L177.082 415.752L149.767 399.983C144.014 403.563 140.76 407.694 139.74 412.59Z" fill="#007BFF"/>
<path opacity="0.3" d="M139.74 412.59C137.159 424.738 151.684 435.866 172.38 437.886L177.082 415.752L149.767 399.983C144.014 403.563 140.76 407.694 139.74 412.59Z" fill="black"/>
<path d="M176.062 437.498L175.93 438.141C183.856 438.6 191.795 437.516 199.308 434.948C208.366 431.807 214.761 426.788 217.321 420.903C219.728 415.324 218.453 409.55 213.741 404.583L207.805 406.623L180.642 416.048L176.062 437.498Z" fill="#007BFF"/>
<path opacity="0.75" d="M176.062 437.498L175.93 438.141C183.856 438.6 191.795 437.516 199.308 434.948C208.366 431.807 214.761 426.788 217.321 420.903C219.728 415.324 218.453 409.55 213.741 404.583L207.805 406.623L180.642 416.048L176.062 437.498Z" fill="white"/>
<path d="M152.286 398.504L175.889 412.131L168.953 393.281C163.126 393.996 157.478 395.765 152.286 398.504Z" fill="#007BFF"/>
<path d="M177.031 423.524V415.752L172.319 437.886V445.658L177.031 423.524Z" fill="#007BFF"/>
<path opacity="0.55" d="M177.031 423.524V415.752L172.319 437.886V445.658L177.031 423.524Z" fill="black"/>
<path d="M207.142 381.184L202.001 384.152L207.142 387.121L212.282 384.152L207.142 381.184Z" fill="#007BFF"/>
<path opacity="0.3" d="M207.142 381.184L202.001 384.152L207.142 387.121L212.282 384.152L207.142 381.184Z" fill="black"/>
<path d="M212.282 384.152V387.131L207.142 390.099V387.121L212.282 384.152Z" fill="#007BFF"/>
<path opacity="0.4" d="M212.282 384.152V387.131L207.142 390.099V387.121L212.282 384.152Z" fill="black"/>
<path d="M207.142 387.121V390.099L202.001 387.131V384.152L207.142 387.121Z" fill="#007BFF"/>
<path opacity="0.55" d="M207.142 387.121V390.099L202.001 387.131V384.152L207.142 387.121Z" fill="black"/>
<path d="M214.995 378.879L234.049 367.883C234.661 367.559 235.342 367.383 236.035 367.371C236.728 367.358 237.414 367.509 238.037 367.812C239.057 368.424 239.057 369.454 237.905 370.117L218.851 381.113C218.238 381.435 217.558 381.61 216.865 381.622C216.173 381.634 215.487 381.484 214.863 381.184C213.802 380.572 213.853 379.542 214.995 378.879Z" fill="#E0E0E0"/>
<path d="M218.729 387.875L213.588 390.844L218.729 393.812L223.869 390.844L218.729 387.875Z" fill="#007BFF"/>
<path opacity="0.88" d="M218.729 387.875L213.588 390.844L218.729 393.812L223.869 390.844L218.729 387.875Z" fill="white"/>
<path d="M223.87 390.833V393.812L218.729 396.78V393.812L223.87 390.833Z" fill="#007BFF"/>
<path opacity="0.75" d="M223.87 390.833V393.812L218.729 396.78V393.812L223.87 390.833Z" fill="white"/>
<path d="M218.729 393.812V396.78L213.588 393.812V390.833L218.729 393.812Z" fill="#007BFF"/>
<path opacity="0.6" d="M218.729 393.812V396.78L213.588 393.812V390.833L218.729 393.812Z" fill="white"/>
<path d="M226.583 385.56L245.626 374.564C246.238 374.238 246.918 374.061 247.611 374.046C248.304 374.032 248.99 374.182 249.614 374.483C250.685 375.105 250.634 376.135 249.492 376.788L230.438 387.804C229.825 388.126 229.145 388.301 228.453 388.313C227.76 388.326 227.074 388.176 226.45 387.875C225.42 387.253 225.42 386.223 226.583 385.56Z" fill="#E0E0E0"/>
<path d="M230.306 394.567L225.165 397.535L230.316 400.503L235.457 397.535L230.306 394.567Z" fill="#007BFF"/>
<path opacity="0.3" d="M230.306 394.567L225.165 397.535L230.316 400.503L235.457 397.535L230.306 394.567Z" fill="white"/>
<path d="M235.457 397.525V400.503L230.316 403.471V400.503L235.457 397.525Z" fill="#007BFF"/>
<path d="M230.316 400.503V403.471L225.165 400.503V397.525L230.316 400.503Z" fill="#007BFF"/>
<path opacity="0.1" d="M230.316 400.503V403.471L225.165 400.503V397.525L230.316 400.503Z" fill="black"/>
<path d="M238.16 392.261L257.213 381.256C257.826 380.933 258.506 380.759 259.199 380.746C259.891 380.734 260.577 380.884 261.201 381.184C262.272 381.806 262.222 382.837 261.079 383.489L242.026 394.485C241.414 394.811 240.734 394.989 240.041 395.003C239.348 395.017 238.662 394.868 238.037 394.567C236.966 393.944 237.028 392.914 238.16 392.261Z" fill="#E0E0E0"/>
<path d="M241.893 401.248L236.752 404.216L241.893 407.184L247.034 404.216L241.893 401.248Z" fill="#455A64"/>
<path d="M247.034 404.216V407.194L241.893 410.162V407.184L247.034 404.216Z" fill="#37474F"/>
<path d="M241.893 407.184V410.162L236.752 407.194V404.216L241.893 407.184Z" fill="#263238"/>
<path d="M249.747 398.953L268.801 387.947C269.414 387.624 270.094 387.45 270.786 387.438C271.479 387.425 272.165 387.575 272.789 387.875C273.86 388.487 273.809 389.518 272.656 390.181L253.613 401.176C253 401.501 252.32 401.677 251.627 401.689C250.934 401.701 250.248 401.55 249.625 401.248C248.554 400.636 248.615 399.605 249.747 398.953Z" fill="#E0E0E0"/>
<path d="M403.135 240.19C410.203 240.19 413.559 242.23 416.109 248.941C418.659 255.653 425.401 271.228 425.534 275.839C425.677 280.622 410.234 295.127 410.825 294.882C410.988 294.8 406.123 286.09 406.123 286.09L414.793 275.471L409.826 261.059L403.135 240.19Z" fill="#FFA8A7"/>
<path d="M411.886 398.667C412.325 399.085 412.406 399.483 412.386 400.993C412.366 402.502 413.008 404.185 412.233 405.593C411.662 406.613 408.704 407.368 407.204 406.613C405.898 405.757 404.728 404.708 403.736 403.502C402.804 402.438 401.78 401.459 400.676 400.574C399.401 399.626 397.922 398.993 396.596 398.126C395.557 397.453 394.684 396.552 394.044 395.492C393.405 394.432 393.015 393.24 392.904 392.006C392.818 391.201 392.982 390.39 393.373 389.681C393.691 389.3 394.108 389.017 394.579 388.862C395.049 388.707 395.554 388.687 396.035 388.804C397.474 389.038 402.349 391.762 403.471 392.537C404.94 393.496 411.437 398.239 411.886 398.667Z" fill="#263238"/>
<path d="M404.726 392.425C404.675 393.506 400.115 390.976 398.249 391.221H398.198C396.454 392.057 397.902 394.495 399.514 395.74C401.125 396.984 406.409 400.84 406.409 400.84L407.49 394.587L404.726 392.425Z" fill="#FFA8A7"/>
<path d="M384.938 410.04C385.784 410.04 386.162 412.814 386.325 414.946C386.437 416.599 387.07 419.302 386.478 420.515C385.886 421.729 383.673 422.484 380.236 422.413C378.002 422.413 374.513 423.83 372.127 425.126C369.724 426.282 367.009 426.623 364.395 426.095C361.335 425.697 358.193 423.881 357.714 422.617C357.235 421.352 357.887 420.74 365.129 417.761C365.201 417.761 372.779 414.426 376.349 410.621L384.938 410.04Z" fill="#263238"/>
<path d="M365.16 417.761C364.14 418.169 363.293 418.537 362.528 418.863C362.335 419.546 362.6 420.638 365.803 421.168C370.678 421.984 385.019 411.182 385.019 411.182C385.019 411.182 382.979 411.754 382.581 410.581H376.349C372.779 414.426 365.16 417.731 365.16 417.761Z" fill="#FFA8A7"/>
<path d="M414.793 363.191C414.869 358.437 414.396 353.69 413.386 349.044C413.386 349.044 414.242 330.827 414.334 319.382C414.528 296.738 414.1 293.413 409.091 283.682C409.091 283.682 379.848 280.265 378.614 294.515C377.084 312.263 375.299 341.955 375.34 350.411C375.34 356.704 376.094 363.528 376.441 377.798C376.666 386.978 377.624 399.85 376.319 410.662C377.971 413.437 382.439 413.386 384.989 411.223C385.723 400.636 390.986 380.358 391.802 373.289C392.245 368.183 392.032 363.042 391.17 357.989C391.17 357.989 395.046 327.757 395.729 323.156C396.721 328.021 397.288 332.963 397.423 337.926C397.423 339.966 398.116 346.667 399.269 357.989C399.973 364.885 404.848 391.833 405.909 400.493C408.357 402.859 411.519 401.227 411.662 400.207C412.478 389.64 414.793 369.791 414.793 363.191Z" fill="#FFA8A7"/>
<path opacity="0.15" d="M395.76 323.126L398.341 308.448C402.743 307.768 406.794 305.644 409.856 302.41C409.856 302.41 408.306 308.275 400.676 310.274L397.616 323.534L397.106 335.641L395.76 323.126Z" fill="black"/>
<path d="M388.396 235.263L389.609 248.564L401.299 247.86L400.401 233.101L388.396 235.263Z" fill="#FFA8A7"/>
<path d="M411.856 287.222C410.516 283.683 408.806 280.294 406.756 277.114C411.754 261.018 413.355 255.602 412.386 248.717C411.764 244.341 408.306 239.965 404.063 240.2H400.86C400.676 243.26 392.2 243.392 388.987 241.291L386.019 241.373C383.928 242.117 376.839 252.593 376.023 259.478C375.38 265.098 379.797 269.974 379.797 269.974C379.813 272.36 379.673 274.745 379.379 277.114C379.379 277.114 379.379 290.731 379.379 297.514C379.379 297.514 381.021 302.736 398.177 301.104C413.477 299.656 413.804 294.443 413.804 294.443C413.438 291.968 412.784 289.545 411.856 287.222Z" fill="#007BFF"/>
<g opacity="0.3">
<path opacity="0.3" d="M411.856 287.222C410.516 283.683 408.806 280.294 406.756 277.114C411.754 261.018 413.355 255.602 412.386 248.717C411.764 244.341 408.306 239.965 404.063 240.2H400.86C400.676 243.26 392.2 243.392 388.987 241.291L386.019 241.373C383.928 242.117 376.839 252.593 376.023 259.478C375.38 265.098 379.797 269.974 379.797 269.974C379.813 272.36 379.673 274.745 379.379 277.114C379.379 277.114 379.379 290.731 379.379 297.514C379.379 297.514 381.021 302.736 398.177 301.104C413.477 299.656 413.804 294.443 413.804 294.443C413.438 291.968 412.784 289.545 411.856 287.222Z" fill="black"/>
</g>
<path d="M390.16 204.133C388.436 203.906 386.682 204.098 385.048 204.69C383.413 205.283 381.944 206.26 380.766 207.539C374.789 214.271 381.347 219.229 381.347 219.229L390.16 204.133Z" fill="#263238"/>
<path d="M379.766 220.636C379.766 220.636 377.165 224.543 377.502 224.961C378.106 225.361 378.776 225.652 379.481 225.818L379.766 220.636Z" fill="#F28F8F"/>
<path d="M387.702 208.264C385.183 209.559 380.827 211.946 379.685 221.207C378.512 230.724 380.623 234.029 381.919 235.283C382.786 236.13 387.304 236.446 389.66 235.722C392.618 234.814 399.014 231.642 402.013 226.766C405.552 221.003 406.307 213.302 402.247 210.273C396.535 206.04 389.834 207.172 387.702 208.264Z" fill="#FFA8A7"/>
<path d="M386.447 219.208C381.174 216.526 382.52 209.528 382.52 209.528C382.52 209.528 390.048 198.767 403.94 205.724C408.745 208.131 411.631 213.598 411.519 220.004C411.519 224.002 409.931 227.837 407.103 230.664C404.276 233.491 400.442 235.079 396.443 235.079C394.111 235.079 391.875 234.153 390.226 232.504C388.577 230.855 387.651 228.619 387.651 226.287V225.706L388.1 225.848C388.817 226.018 389.565 226.007 390.277 225.817C390.989 225.626 391.643 225.262 392.18 224.757C394.495 222.717 394.771 218.851 391.843 217.872C388.916 216.893 387.396 220.32 387.396 220.32L386.264 223.38C385.99 223.281 385.739 223.129 385.525 222.933C385.31 222.737 385.137 222.5 385.013 222.237C384.89 221.974 384.82 221.689 384.807 221.398C384.794 221.108 384.839 220.818 384.938 220.544C385.061 220.215 385.263 219.922 385.526 219.689C385.79 219.456 386.106 219.291 386.447 219.208Z" fill="#263238"/>
<path d="M354.572 221.35L329.501 233.906L341.292 267.883L364.711 255.275L354.572 221.35Z" fill="#007BFF"/>
<path d="M353.379 224.635L332.347 235.171L342.791 264.394L362.437 253.817L353.379 224.635Z" fill="#F5F5F5"/>
<path opacity="0.15" d="M348.932 227.695L348.544 226.675C348.33 226.103 346.586 226.42 344.648 227.378L340.945 229.204C339.017 230.163 337.62 231.407 337.834 231.989L338.222 233.009L348.932 227.695Z" fill="black"/>
<path d="M348.595 223.564C348.463 223.196 347.708 223.247 346.902 223.666L345.454 224.41C345.454 224.41 344.607 222.166 341.272 223.655C337.936 225.145 338.65 227.735 338.65 227.735L337.11 228.551C336.263 229 335.651 229.663 335.743 230.02L335.917 230.683L348.84 224.227L348.595 223.564Z" fill="#37474F"/>
<path d="M347.188 225.032C345.984 225.604 345.515 225.879 345.841 226.766C346.168 227.654 346.565 228.5 346.565 228.5L340.853 231.367C340.853 231.367 340.405 230.081 340.201 229.592C339.997 229.102 339.599 228.847 338.691 229.306L338.354 228.939L347.371 224.543L347.188 225.032Z" fill="#263238"/>
<path d="M349.166 227.756L348.789 226.736C348.575 226.165 346.831 226.471 344.893 227.429L341.19 229.265C339.252 230.224 337.865 231.469 338.079 232.04L338.456 233.06L349.166 227.756Z" fill="#37474F"/>
<path d="M385.988 241.373C382.041 241.312 379.654 241.658 374.269 249.655C368.883 257.652 358.887 272.34 357.724 274.288C356.092 276.94 355.684 281.01 357.051 283.468C358.285 285.784 360.468 286.589 366.68 279.99C371.27 275.104 380.96 262.13 380.96 262.13C380.96 262.13 388.457 248.146 385.988 241.373Z" fill="#FFA8A7"/>
<path d="M359.499 285.172C356.245 286.192 344.301 271.973 340.986 267.699C338.319 264.138 335.183 260.954 331.663 258.233C327.063 254.714 327.828 249.441 329.939 244.637C330.674 242.964 332.999 244.096 332.999 244.096L333.805 246.412L335.192 250.42C336.161 251.348 336.722 251.654 336.784 251.379C336.916 250.869 336.11 248.717 336.161 246.483C336.233 243.8 338.089 245.596 338.63 246.544C339.374 247.988 340.011 249.485 340.537 251.022C341.435 253.439 341.006 255.857 342.128 257.519C343.25 259.182 359.468 272.646 359.468 272.646L359.499 285.172Z" fill="#FFA8A7"/>
<path d="M406.796 277.114C406.796 277.114 395.362 283.866 379.348 277.114C377.92 285.514 376.95 293.986 376.441 302.491C375.87 313.324 374.615 336.569 374.615 336.569C374.615 336.569 379.338 342.088 396.209 340.966C412.427 339.946 415.283 335.662 415.283 335.662C415.283 335.662 415.283 314.782 415.405 305.653C415.517 293.984 413.885 287.64 406.796 277.114Z" fill="#007BFF"/>
<path opacity="0.5" d="M406.796 277.114C406.796 277.114 395.362 283.866 379.348 277.114C377.92 285.514 376.95 293.986 376.441 302.491C375.87 313.324 374.615 336.569 374.615 336.569C374.615 336.569 379.338 342.088 396.209 340.966C412.427 339.946 415.283 335.662 415.283 335.662C415.283 335.662 415.283 314.782 415.405 305.653C415.517 293.984 413.885 287.64 406.796 277.114Z" fill="black"/>
<path d="M412.08 215.516L414.763 213.068C414.402 212.68 413.922 212.425 413.399 212.345C412.875 212.265 412.341 212.365 411.881 212.627C411.421 212.889 411.064 213.299 410.867 213.79C410.669 214.281 410.644 214.825 410.795 215.332C410.468 215.332 410.132 215.281 409.775 215.281V236.783C409.775 239.75 410.95 242.596 413.043 244.699C415.136 246.801 417.977 247.989 420.944 248.003V226.44C420.933 223.881 420.049 221.403 418.437 219.416C416.824 217.429 414.582 216.053 412.08 215.516Z" fill="#263238"/>
</svg>
