<svg width="94" height="23" viewBox="0 0 94 23" fill="none" xmlns="http://www.w3.org/2000/svg">
<path d="M8.69066 22.1832C7.10987 22.1832 5.71783 21.8057 4.49095 21.0271C3.26407 20.2485 2.32032 19.2104 1.6125 17.9599C0.904689 16.6858 0.550781 15.2702 0.550781 13.7366C0.550781 12.203 0.881095 10.8109 1.56532 9.58407C2.24954 8.3336 3.19329 7.31906 4.42017 6.56406C5.64705 5.80905 7.03909 5.40796 8.64347 5.40796C10.1535 5.40796 11.4747 5.76187 12.6072 6.46968C13.551 7.01234 14.2824 7.74375 14.8487 8.61672C15.061 8.94704 14.8958 9.37173 14.5419 9.4897L13.5982 9.79641C13.3386 9.8672 13.0791 9.77282 12.9376 9.53688C12.5129 8.89985 11.9466 8.38078 11.2388 8.00328C10.4366 7.53141 9.54004 7.29547 8.5491 7.29547C7.46378 7.29547 6.44924 7.57859 5.57627 8.14485C4.7033 8.7111 3.99548 9.4897 3.47642 10.4806C2.95735 11.448 2.69782 12.5569 2.69782 13.7602C2.69782 14.9871 2.95735 16.096 3.50001 17.0869C4.04267 18.0779 4.75049 18.88 5.64705 19.4699C6.54362 20.0597 7.51097 20.3429 8.59628 20.3429C9.3041 20.3429 9.98832 20.2249 10.6489 19.9654C11.3096 19.7058 11.8758 19.3755 12.3477 18.9744C12.678 18.6677 12.9376 18.3374 13.1263 18.0071C13.2443 17.7711 13.5274 17.6532 13.7869 17.7239L14.7307 18.0071C15.0846 18.1014 15.2497 18.5025 15.0846 18.8329C14.8015 19.3519 14.424 19.8238 13.9521 20.2721C13.2915 20.8619 12.5129 21.3574 11.5927 21.6877C10.6961 22.018 9.70519 22.1832 8.69066 22.1832Z" fill="#222F3E"/>
<path d="M35.7531 21.5227L29.6659 6.51703C29.5008 6.13953 29.7839 5.71484 30.2086 5.71484H31.1523C31.3883 5.71484 31.6006 5.85641 31.695 6.09234L36.7205 18.8802C36.8385 19.2105 37.3103 19.2105 37.4283 18.8802L42.4774 6.09234C42.5718 5.88 42.7841 5.71484 43.02 5.71484H43.8458C44.2469 5.71484 44.53 6.13953 44.3885 6.51703L38.3013 21.5227C38.2069 21.7351 37.9946 21.8766 37.7586 21.8766H36.2722C36.0363 21.9002 35.8239 21.7587 35.7531 21.5227Z" fill="#222F3E"/>
<path d="M52.0321 22.1832C50.4749 22.1832 49.0829 21.8057 47.8796 21.0271C46.6527 20.2721 45.6854 19.234 45.0012 17.9599C44.2934 16.6858 43.9395 15.2702 43.9395 13.7366C43.9395 12.2266 44.2698 10.8345 44.954 9.58407C45.6618 8.3336 46.6292 7.31906 47.8324 6.56406C49.0593 5.80905 50.4278 5.40796 51.985 5.40796C53.5893 5.40796 54.9814 5.78546 56.1847 6.56406C57.3879 7.31906 58.3081 8.3336 58.9687 9.60766C59.653 10.8581 59.9833 12.203 59.9833 13.713C59.9833 13.8074 59.9833 13.9017 59.9833 13.9725C59.9833 14.2792 59.7237 14.5388 59.3934 14.5388H46.5348C46.2988 14.5388 46.1101 14.7511 46.1573 14.9635C46.2988 15.9544 46.6056 16.851 47.101 17.6296C47.6673 18.5261 48.3751 19.234 49.2481 19.7766C50.121 20.2957 51.0648 20.5552 52.1029 20.5552C53.1646 20.5552 54.1556 20.2957 55.0758 19.753C55.8779 19.3047 56.4678 18.7149 56.8689 18.0071C56.9869 17.7947 57.27 17.7004 57.5059 17.7475L58.1901 17.9363C58.544 18.0307 58.7328 18.4554 58.544 18.7857C58.2373 19.3047 57.8362 19.8002 57.3172 20.2249C56.6329 20.8147 55.8308 21.3102 54.9342 21.6405C54.0848 22.018 53.0939 22.1832 52.0321 22.1832ZM46.5112 13.0288H58.025C57.9306 11.8727 57.6239 10.8581 57.0576 9.96157C56.4914 9.04141 55.7836 8.35719 54.9106 7.86172C54.0376 7.34265 53.0703 7.08312 52.0321 7.08312C50.9704 7.08312 50.0267 7.34265 49.1537 7.86172C48.2807 8.35719 47.5729 9.06501 47.0067 9.96157C46.5348 10.7402 46.2281 11.6131 46.1101 12.6041C46.0865 12.8164 46.2752 13.0288 46.5112 13.0288Z" fill="#222F3E"/>
<path d="M69.1618 20.5789C69.2562 20.862 69.1146 21.1687 68.8315 21.2867C68.5956 21.3811 68.3124 21.499 67.9585 21.6406C67.2979 21.9001 66.5429 22.0417 65.6699 22.0417C64.7498 22.0417 63.9712 21.7821 63.287 21.2631C62.6027 20.744 62.2724 19.9654 62.2724 18.9273V7.7674C62.2724 7.55506 62.1073 7.3899 61.8949 7.3899H60.6209C60.2905 7.3899 60.031 7.13037 60.031 6.80006V6.28099C60.031 5.95068 60.2905 5.69115 60.6209 5.69115H61.8949C62.1073 5.69115 62.2724 5.52599 62.2724 5.31364V0.830813C62.2724 0.500499 62.532 0.240967 62.8623 0.240967H63.806C64.1363 0.240967 64.3959 0.500499 64.3959 0.830813V5.33724C64.3959 5.54958 64.561 5.71474 64.7734 5.71474H67.5338C67.8642 5.71474 68.1237 5.97427 68.1237 6.30459V6.82365C68.1237 7.15396 67.8642 7.4135 67.5338 7.4135H64.7734C64.561 7.4135 64.3959 7.57865 64.3959 7.791V18.3846C64.4431 18.9745 64.6554 19.4228 65.0093 19.7295C65.4104 19.989 65.8587 20.1306 66.3542 20.1306C66.944 20.1306 67.4395 20.0362 67.9113 19.8475C68.0293 19.8003 68.1473 19.7531 68.2417 19.7059C68.5484 19.5643 68.9259 19.7295 69.0203 20.0598L69.1618 20.5789Z" fill="#222F3E"/>
<path d="M78.0094 20.5789C78.1038 20.862 77.9622 21.1687 77.6791 21.2867C77.4431 21.3811 77.16 21.499 76.8061 21.6406C76.1455 21.9001 75.3905 22.0417 74.5175 22.0417C73.5973 22.0417 72.8187 21.7821 72.1345 21.2631C71.4503 20.744 71.12 19.9654 71.12 18.9273V7.7674C71.12 7.55506 70.9548 7.3899 70.7425 7.3899H69.4448C69.1145 7.3899 68.855 7.13037 68.855 6.80006V6.28099C68.855 5.95068 69.1145 5.69115 69.4448 5.69115H70.7189C70.9312 5.69115 71.0964 5.52599 71.0964 5.31364V0.830813C71.0964 0.500499 71.3559 0.240967 71.6862 0.240967H72.63C72.9603 0.240967 73.2198 0.500499 73.2198 0.830813V5.33724C73.2198 5.54958 73.385 5.71474 73.5973 5.71474H76.3578C76.6881 5.71474 76.9477 5.97427 76.9477 6.30459V6.82365C76.9477 7.15396 76.6881 7.4135 76.3578 7.4135H73.5973C73.385 7.4135 73.2198 7.57865 73.2198 7.791V18.3846C73.267 18.9745 73.4794 19.4228 73.8333 19.7295C74.2344 19.989 74.6827 20.1306 75.1781 20.1306C75.768 20.1306 76.2634 20.0362 76.7353 19.8475C76.8533 19.8003 76.9713 19.7531 77.0656 19.7059C77.3724 19.5643 77.7499 19.7295 77.8442 20.0598L78.0094 20.5789Z" fill="#222F3E"/>
<path d="M85.4892 22.0889C83.932 22.0889 82.5399 21.7114 81.3367 20.9328C80.1098 20.1778 79.1424 19.1397 78.4582 17.8656C77.7504 16.5916 77.3965 15.1759 77.3965 13.6423C77.3965 12.1323 77.7268 10.7403 78.411 9.48983C79.1188 8.23936 80.0862 7.22482 81.2895 6.46982C82.5163 5.71482 83.8848 5.31372 85.442 5.31372C87.0464 5.31372 88.4384 5.69122 89.6417 6.46982C90.845 7.22482 91.7651 8.23936 92.4258 9.51343C93.11 10.7639 93.4403 12.1087 93.4403 13.6188C93.4403 13.7131 93.4403 13.8075 93.4403 13.8783C93.4403 14.185 93.1808 14.4445 92.8505 14.4445H79.9918C79.7559 14.4445 79.5671 14.6569 79.6143 14.8692C79.7559 15.8602 80.0626 16.7331 80.5581 17.5353C81.1243 18.4319 81.8321 19.1397 82.7051 19.6824C83.5781 20.2014 84.5218 20.461 85.5599 20.461C86.6217 20.461 87.6126 20.2014 88.5328 19.6588C89.335 19.2105 89.9248 18.6207 90.3259 17.9128C90.4439 17.7005 90.727 17.6061 90.9629 17.6533L91.6472 17.8421C92.0011 17.9364 92.1898 18.3611 92.0011 18.6914C91.6944 19.2105 91.2933 19.706 90.7742 20.1307C90.09 20.7205 89.2878 21.216 88.3912 21.5463C87.5182 21.9238 86.5273 22.0889 85.4892 22.0889ZM79.9446 12.9345H91.0337C91.2697 12.9345 91.4584 12.7222 91.4112 12.5098C91.2933 11.5189 90.9865 10.6459 90.4911 9.86733C89.9248 8.94717 89.217 8.26295 88.344 7.76748C87.4711 7.24842 86.5037 6.98888 85.4656 6.98888C84.4039 6.98888 83.4601 7.24842 82.5871 7.76748C81.7142 8.26295 81.0063 8.97077 80.4401 9.86733C79.9682 10.6459 79.6615 11.5189 79.5435 12.5098C79.5435 12.7458 79.7323 12.9345 79.9446 12.9345Z" fill="#222F3E"/>
<path d="M28.1557 5.59685L29.8073 19.0689C29.9724 20.343 29.0523 21.4991 27.7782 21.6643L20.3225 22.5844C19.0485 22.7496 17.8924 21.8294 17.7272 20.5554L16.052 6.9653C16.0284 6.72936 16.1936 6.49342 16.4531 6.46983L17.6564 6.32826C17.8924 6.30467 18.1283 6.46983 18.1519 6.72936L19.7091 19.3521C19.7799 19.9891 20.3697 20.4374 21.0067 20.3666L26.5985 19.6824C27.2355 19.6116 27.6838 19.0218 27.613 18.3847L26.0558 5.71482C26.0322 5.47889 26.1974 5.24295 26.4569 5.21935L27.5422 5.07779C27.8254 5.0306 28.1321 5.26654 28.1557 5.59685Z" fill="#ACBAC9"/>
<path d="M25.7022 18.432L21.5733 18.9275C21.2902 18.9746 21.007 18.7623 20.9834 18.4556L20.4644 14.2795L20.1105 11.3538C20.0869 11.2359 20.2048 11.1651 20.2992 11.1887L20.9127 11.3774C22.1395 11.7313 23.4372 11.7077 24.6405 11.2595L25.136 11.0707C25.2303 11.0471 25.3247 11.0943 25.3247 11.1887L26.1269 17.8186C26.1977 18.1253 25.9853 18.4084 25.7022 18.432Z" fill="#0B66EF"/>
</svg>
